ffmpeg started on 2025-05-29 at 16:18:13
Report written to "D:\Convert\FFMetrics\reports\psnr_report-6.txt"
Log level: 32
Command line:
ffmpeg -hide_banner -nostdin -i "G:\\\xc0\xed\xe8\xec\xe5\\\xce\xed\xe3\xee\xe8\xed\xe3\xe8\\!_36_\xce\xf1\xe5\xed\xfc_2024\\JamClub\\\xd2\xfb - \xe3\xee\xf0\xed\xe8\xf7\xed\xe0\xff\\JamClub_Kimi_wa_Meido_sama_03_1080p_HEVC.mkv" -i "G:\\\xc0\xed\xe8\xec\xe5\\\xce\xed\xe3\xee\xe8\xed\xe3\xe8\\!_36_\xce\xf1\xe5\xed\xfc_2024\\JamClub\\\xd2\xfb - \xe3\xee\xf0\xed\xe8\xf7\xed\xe0\xff\\JamClub_Kimi_wa_Meido_sama_03_1080p.mp4" -lavfi "[0:v]settb=AVTB,setpts=PTS-STARTPTS,format=pix_fmts=yuv420p10,fps=24000/1001,scale=1920:1080:flags=bicubic[main];[1:v]settb=AVTB,setpts=PTS-STARTPTS,format=pix_fmts=yuv420p,fps=24000/1001,scale=1920:1080:flags=bicubic[ref];[main][ref]psnr=eof_action=endall:stats_file='D\\:/Convert/FFMetrics/logs/psnr_logfile-6.txt'" -f null -
Input #0, matroska,webm, from 'G:\Аниме\Онгоинги\!_36_Осень_2024\JamClub\Ты - горничная\JamClub_Kimi_wa_Meido_sama_03_1080p_HEVC.mkv':
  Metadata:
    COMPATIBLE_BRANDS: isomiso2avc1mp41
    MAJOR_BRAND     : isom
    MINOR_VERSION   : 512
    ENCODER         : Lavf61.7.100
  Duration: 00:23:22.26, start: -0.001000, bitrate: 1895 kb/s
  Stream #0:0: Video: hevc (Main 10), yuv420p10le(tv, bt709, progressive), 1920x1080 [SAR 1:1 DAR 16:9], 23.98 fps, 23.98 tbr, 1k tbn (default)
      Metadata:
        HANDLER_NAME    : VideoHandler
        VENDOR_ID       : [0][0][0][0]
        ENCODER         : Lavc61.19.100 libx265
        BPS             : 1697793
        DURATION        : 00:23:22.192708333
        NUMBER_OF_FRAMES: 33619
        NUMBER_OF_BYTES : 297579128
        _STATISTICS_WRITING_APP: mkvpropedit v66.0.0 ('Josie') 64-bit
        _STATISTICS_WRITING_DATE_UTC: 2025-05-29 09:47:40
        _STATISTICS_TAGS: BPS DURATION NUMBER_OF_FRAMES NUMBER_OF_BYTES
  Stream #0:1(eng): Audio: aac (LC), 48000 Hz, stereo, fltp (default)
      Metadata:
        HANDLER_NAME    : SoundHandler
        VENDOR_ID       : [0][0][0][0]
        ENCODER         : Lavc61.19.100 aac
        BPS             : 193235
        DURATION        : 00:23:22.221000000
        NUMBER_OF_FRAMES: 65730
        NUMBER_OF_BYTES : 33869881
        _STATISTICS_WRITING_APP: mkvpropedit v66.0.0 ('Josie') 64-bit
        _STATISTICS_WRITING_DATE_UTC: 2025-05-29 09:47:40
        _STATISTICS_TAGS: BPS DURATION NUMBER_OF_FRAMES NUMBER_OF_BYTES
Input #1, mov,mp4,m4a,3gp,3g2,mj2, from 'G:\Аниме\Онгоинги\!_36_Осень_2024\JamClub\Ты - горничная\JamClub_Kimi_wa_Meido_sama_03_1080p.mp4':
  Metadata:
    major_brand     : isom
    minor_version   : 512
    compatible_brands: isomiso2avc1mp41
    encoder         : Lavf60.16.100
  Duration: 00:23:22.24, start: 0.000000, bitrate: 4402 kb/s
  Stream #1:0[0x1](und): Video: h264 (High) (avc1 / 0x31637661), yuv420p(progressive), 1920x1080 [SAR 1:1 DAR 16:9], 4204 kb/s, 23.98 fps, 23.98 tbr, 90k tbn (default)
      Metadata:
        handler_name    : VideoHandler
        vendor_id       : [0][0][0][0]
  Stream #1:1[0x2](eng): Audio: aac (LC) (mp4a / 0x6134706D), 48000 Hz, stereo, fltp, 191 kb/s (default)
      Metadata:
        handler_name    : SoundHandler
        vendor_id       : [0][0][0][0]
Stream mapping:
  Stream #0:0 (hevc) -> settb:default
  Stream #1:0 (h264) -> settb:default
  psnr:default -> Stream #0:0 (wrapped_avframe)
  Stream #0:1 -> #0:1 (aac (native) -> pcm_s16le (native))
Output #0, null, to 'pipe:':
  Metadata:
    COMPATIBLE_BRANDS: isomiso2avc1mp41
    MAJOR_BRAND     : isom
    MINOR_VERSION   : 512
    encoder         : Lavf61.7.100
  Stream #0:0: Video: wrapped_avframe, yuv420p10le(tv, bt709, progressive), 1920x1080 [SAR 1:1 DAR 16:9], q=2-31, 200 kb/s, 23.98 fps, 23.98 tbn
      Metadata:
        encoder         : Lavc61.19.100 wrapped_avframe
  Stream #0:1(eng): Audio: pcm_s16le, 48000 Hz, stereo, s16, 1536 kb/s (default)
      Metadata:
        HANDLER_NAME    : SoundHandler
        VENDOR_ID       : [0][0][0][0]
        _STATISTICS_TAGS: BPS DURATION NUMBER_OF_FRAMES NUMBER_OF_BYTES
        BPS             : 193235
        DURATION        : 00:23:22.221000000
        NUMBER_OF_FRAMES: 65730
        NUMBER_OF_BYTES : 33869881
        _STATISTICS_WRITING_APP: mkvpropedit v66.0.0 ('Josie') 64-bit
        _STATISTICS_WRITING_DATE_UTC: 2025-05-29 09:47:40
        encoder         : Lavc61.19.100 pcm_s16le
frame=  112 fps=0.0 q=-0.0 size=N/A time=00:00:04.67 bitrate=N/A speed=8.96x    frame=  276 fps=264 q=-0.0 size=N/A time=00:00:11.51 bitrate=N/A speed=  11x    frame=  470 fps=302 q=-0.0 size=N/A time=00:00:19.60 bitrate=N/A speed=12.6x    frame=  698 fps=336 q=-0.0 size=N/A time=00:00:29.11 bitrate=N/A speed=  14x    frame=  954 fps=370 q=-0.0 size=N/A time=00:00:39.78 bitrate=N/A speed=15.4x    frame= 1204 fps=388 q=-0.0 size=N/A time=00:00:50.21 bitrate=N/A speed=16.2x    frame= 1483 fps=411 q=-0.0 size=N/A time=00:01:01.85 bitrate=N/A speed=17.1x    frame= 1752 fps=424 q=-0.0 size=N/A time=00:01:13.07 bitrate=N/A speed=17.7x    frame= 2010 fps=433 q=-0.0 size=N/A time=00:01:23.83 bitrate=N/A speed=18.1x    frame= 2272 fps=440 q=-0.0 size=N/A time=00:01:34.76 bitrate=N/A speed=18.3x    frame= 2514 fps=443 q=-0.0 size=N/A time=00:01:44.85 bitrate=N/A speed=18.5x    frame= 2781 fps=449 q=-0.0 size=N/A time=00:01:55.99 bitrate=N/A speed=18.7x    frame= 3050 fps=455 q=-0.0 size=N/A time=00:02:07.21 bitrate=N/A speed=  19x    frame= 3297 fps=456 q=-0.0 size=N/A time=00:02:17.51 bitrate=N/A speed=  19x    frame= 3521 fps=455 q=-0.0 size=N/A time=00:02:26.85 bitrate=N/A speed=  19x    frame= 3759 fps=455 q=-0.0 size=N/A time=00:02:36.78 bitrate=N/A speed=  19x    frame= 3975 fps=453 q=-0.0 size=N/A time=00:02:45.79 bitrate=N/A speed=18.9x    frame= 4174 fps=450 q=-0.0 size=N/A time=00:02:54.09 bitrate=N/A speed=18.8x    frame= 4367 fps=445 q=-0.0 size=N/A time=00:03:02.14 bitrate=N/A speed=18.6x    frame= 4503 fps=437 q=-0.0 size=N/A time=00:03:07.81 bitrate=N/A speed=18.2x    frame= 4596 fps=424 q=-0.0 size=N/A time=00:03:11.69 bitrate=N/A speed=17.7x    frame= 4719 fps=416 q=-0.0 size=N/A time=00:03:16.82 bitrate=N/A speed=17.3x    frame= 4853 fps=409 q=-0.0 size=N/A time=00:03:22.41 bitrate=N/A speed=  17x    frame= 4951 fps=400 q=-0.0 size=N/A time=00:03:26.49 bitrate=N/A speed=16.7x    frame= 5129 fps=398 q=-0.0 size=N/A time=00:03:33.92 bitrate=N/A speed=16.6x    frame= 5270 fps=393 q=-0.0 size=N/A time=00:03:39.80 bitrate=N/A speed=16.4x    frame= 5481 fps=394 q=-0.0 size=N/A time=00:03:48.60 bitrate=N/A speed=16.4x    frame= 5679 fps=393 q=-0.0 size=N/A time=00:03:56.86 bitrate=N/A speed=16.4x    frame= 5865 fps=392 q=-0.0 size=N/A time=00:04:04.61 bitrate=N/A speed=16.3x    frame= 6071 fps=392 q=-0.0 size=N/A time=00:04:13.21 bitrate=N/A speed=16.4x    frame= 6294 fps=393 q=-0.0 size=N/A time=00:04:22.51 bitrate=N/A speed=16.4x    frame= 6561 fps=397 q=-0.0 size=N/A time=00:04:33.64 bitrate=N/A speed=16.6x    frame= 6808 fps=400 q=-0.0 size=N/A time=00:04:43.95 bitrate=N/A speed=16.7x    frame= 7071 fps=403 q=-0.0 size=N/A time=00:04:54.91 bitrate=N/A speed=16.8x    frame= 7323 fps=405 q=-0.0 size=N/A time=00:05:05.43 bitrate=N/A speed=16.9x    frame= 7599 fps=409 q=-0.0 size=N/A time=00:05:16.94 bitrate=N/A speed=17.1x    frame= 7866 fps=412 q=-0.0 size=N/A time=00:05:28.07 bitrate=N/A speed=17.2x    frame= 8110 fps=414 q=-0.0 size=N/A time=00:05:38.25 bitrate=N/A speed=17.2x    frame= 8376 fps=416 q=-0.0 size=N/A time=00:05:49.34 bitrate=N/A speed=17.4x    frame= 8619 fps=418 q=-0.0 size=N/A time=00:05:59.48 bitrate=N/A speed=17.4x    frame= 8876 fps=419 q=-0.0 size=N/A time=00:06:10.20 bitrate=N/A speed=17.5x    frame= 9124 fps=421 q=-0.0 size=N/A time=00:06:20.54 bitrate=N/A speed=17.6x    frame= 9355 fps=421 q=-0.0 size=N/A time=00:06:30.18 bitrate=N/A speed=17.6x    frame= 9580 fps=422 q=-0.0 size=N/A time=00:06:39.56 bitrate=N/A speed=17.6x    frame= 9830 fps=423 q=-0.0 size=N/A time=00:06:49.99 bitrate=N/A speed=17.7x    frame=10086 fps=425 q=-0.0 size=N/A time=00:07:00.67 bitrate=N/A speed=17.7x    frame=10308 fps=425 q=-0.0 size=N/A time=00:07:09.92 bitrate=N/A speed=17.7x    frame=10566 fps=426 q=-0.0 size=N/A time=00:07:20.69 bitrate=N/A speed=17.8x    frame=10834 fps=428 q=-0.0 size=N/A time=00:07:31.86 bitrate=N/A speed=17.9x    frame=11095 fps=430 q=-0.0 size=N/A time=00:07:42.75 bitrate=N/A speed=17.9x    frame=11363 fps=432 q=-0.0 size=N/A time=00:07:53.93 bitrate=N/A speed=  18x    frame=11608 fps=433 q=-0.0 size=N/A time=00:08:04.15 bitrate=N/A speed=  18x    frame=11861 fps=434 q=-0.0 size=N/A time=00:08:14.70 bitrate=N/A speed=18.1x    frame=12141 fps=436 q=-0.0 size=N/A time=00:08:26.38 bitrate=N/A speed=18.2x    frame=12391 fps=437 q=-0.0 size=N/A time=00:08:36.80 bitrate=N/A speed=18.2x    frame=12618 fps=437 q=-0.0 size=N/A time=00:08:46.27 bitrate=N/A speed=18.2x    frame=12850 fps=437 q=-0.0 size=N/A time=00:08:55.95 bitrate=N/A speed=18.2x    frame=13102 fps=438 q=-0.0 size=N/A time=00:09:06.46 bitrate=N/A speed=18.3x    frame=13360 fps=439 q=-0.0 size=N/A time=00:09:17.22 bitrate=N/A speed=18.3x    frame=13603 fps=439 q=-0.0 size=N/A time=00:09:27.35 bitrate=N/A speed=18.3x    frame=13875 fps=441 q=-0.0 size=N/A time=00:09:38.70 bitrate=N/A speed=18.4x    frame=14149 fps=442 q=-0.0 size=N/A time=00:09:50.13 bitrate=N/A speed=18.4x    frame=14412 fps=443 q=-0.0 size=N/A time=00:10:01.10 bitrate=N/A speed=18.5x    frame=14685 fps=445 q=-0.0 size=N/A time=00:10:12.48 bitrate=N/A speed=18.5x    frame=14941 fps=446 q=-0.0 size=N/A time=00:10:23.16 bitrate=N/A speed=18.6x    frame=15212 fps=447 q=-0.0 size=N/A time=00:10:34.46 bitrate=N/A speed=18.6x    frame=15440 fps=447 q=-0.0 size=N/A time=00:10:43.97 bitrate=N/A speed=18.6x    frame=15693 fps=447 q=-0.0 size=N/A time=00:10:54.52 bitrate=N/A speed=18.7x    frame=15944 fps=448 q=-0.0 size=N/A time=00:11:04.99 bitrate=N/A speed=18.7x    frame=16189 fps=448 q=-0.0 size=N/A time=00:11:15.21 bitrate=N/A speed=18.7x    frame=16443 fps=449 q=-0.0 size=N/A time=00:11:25.81 bitrate=N/A speed=18.7x    frame=16661 fps=449 q=-0.0 size=N/A time=00:11:34.90 bitrate=N/A speed=18.7x    frame=16920 fps=449 q=-0.0 size=N/A time=00:11:45.70 bitrate=N/A speed=18.7x    frame=17162 fps=450 q=-0.0 size=N/A time=00:11:55.79 bitrate=N/A speed=18.8x    frame=17417 fps=450 q=-0.0 size=N/A time=00:12:06.43 bitrate=N/A speed=18.8x    frame=17623 fps=450 q=-0.0 size=N/A time=00:12:15.02 bitrate=N/A speed=18.7x    frame=17851 fps=449 q=-0.0 size=N/A time=00:12:24.53 bitrate=N/A speed=18.7x    frame=18029 fps=448 q=-0.0 size=N/A time=00:12:31.95 bitrate=N/A speed=18.7x    frame=18258 fps=448 q=-0.0 size=N/A time=00:12:41.51 bitrate=N/A speed=18.7x    frame=18453 fps=447 q=-0.0 size=N/A time=00:12:49.64 bitrate=N/A speed=18.7x    frame=18701 fps=447 q=-0.0 size=N/A time=00:12:59.98 bitrate=N/A speed=18.7x    frame=18930 fps=447 q=-0.0 size=N/A time=00:13:09.53 bitrate=N/A speed=18.7x    frame=19192 fps=448 q=-0.0 size=N/A time=00:13:20.46 bitrate=N/A speed=18.7x    frame=19435 fps=448 q=-0.0 size=N/A time=00:13:30.60 bitrate=N/A speed=18.7x    frame=19686 fps=449 q=-0.0 size=N/A time=00:13:41.07 bitrate=N/A speed=18.7x    frame=19924 fps=449 q=-0.0 size=N/A time=00:13:50.99 bitrate=N/A speed=18.7x    frame=20174 fps=450 q=-0.0 size=N/A time=00:14:01.42 bitrate=N/A speed=18.8x    frame=20428 fps=450 q=-0.0 size=N/A time=00:14:12.01 bitrate=N/A speed=18.8x    frame=20656 fps=450 q=-0.0 size=N/A time=00:14:21.52 bitrate=N/A speed=18.8x    frame=20905 fps=450 q=-0.0 size=N/A time=00:14:31.91 bitrate=N/A speed=18.8x    frame=21160 fps=451 q=-0.0 size=N/A time=00:14:42.54 bitrate=N/A speed=18.8x    frame=21356 fps=450 q=-0.0 size=N/A time=00:14:50.72 bitrate=N/A speed=18.8x    frame=21560 fps=449 q=-0.0 size=N/A time=00:14:59.23 bitrate=N/A speed=18.7x    frame=21824 fps=450 q=-0.0 size=N/A time=00:15:10.24 bitrate=N/A speed=18.8x    frame=22072 fps=450 q=-0.0 size=N/A time=00:15:20.58 bitrate=N/A speed=18.8x    frame=22327 fps=451 q=-0.0 size=N/A time=00:15:31.22 bitrate=N/A speed=18.8x    frame=22587 fps=451 q=-0.0 size=N/A time=00:15:42.06 bitrate=N/A speed=18.8x    frame=22830 fps=452 q=-0.0 size=N/A time=00:15:52.20 bitrate=N/A speed=18.8x    frame=23089 fps=452 q=-0.0 size=N/A time=00:16:03.00 bitrate=N/A speed=18.9x    frame=23330 fps=452 q=-0.0 size=N/A time=00:16:13.05 bitrate=N/A speed=18.9x    frame=23580 fps=452 q=-0.0 size=N/A time=00:16:23.48 bitrate=N/A speed=18.9x    frame=23837 fps=453 q=-0.0 size=N/A time=00:16:34.20 bitrate=N/A speed=18.9x    frame=24106 fps=454 q=-0.0 size=N/A time=00:16:45.42 bitrate=N/A speed=18.9x    frame=24352 fps=454 q=-0.0 size=N/A time=00:16:55.68 bitrate=N/A speed=18.9x    frame=24610 fps=454 q=-0.0 size=N/A time=00:17:06.44 bitrate=N/A speed=18.9x    frame=24863 fps=455 q=-0.0 size=N/A time=00:17:16.99 bitrate=N/A speed=  19x    frame=25074 fps=454 q=-0.0 size=N/A time=00:17:25.79 bitrate=N/A speed=18.9x    frame=25305 fps=454 q=-0.0 size=N/A time=00:17:35.42 bitrate=N/A speed=18.9x    frame=25513 fps=454 q=-0.0 size=N/A time=00:17:44.10 bitrate=N/A speed=18.9x    frame=25754 fps=454 q=-0.0 size=N/A time=00:17:54.15 bitrate=N/A speed=18.9x    frame=26015 fps=454 q=-0.0 size=N/A time=00:18:05.04 bitrate=N/A speed=18.9x    frame=26284 fps=455 q=-0.0 size=N/A time=00:18:16.26 bitrate=N/A speed=  19x    frame=26516 fps=455 q=-0.0 size=N/A time=00:18:25.93 bitrate=N/A speed=  19x    frame=26787 fps=455 q=-0.0 size=N/A time=00:18:37.24 bitrate=N/A speed=  19x    frame=27036 fps=456 q=-0.0 size=N/A time=00:18:47.62 bitrate=N/A speed=  19x    frame=27296 fps=456 q=-0.0 size=N/A time=00:18:58.47 bitrate=N/A speed=  19x    frame=27458 fps=455 q=-0.0 size=N/A time=00:19:05.22 bitrate=N/A speed=  19x    frame=27642 fps=454 q=-0.0 size=N/A time=00:19:12.90 bitrate=N/A speed=18.9x    frame=27862 fps=454 q=-0.0 size=N/A time=00:19:22.07 bitrate=N/A speed=18.9x    frame=28106 fps=454 q=-0.0 size=N/A time=00:19:32.25 bitrate=N/A speed=18.9x    frame=28346 fps=454 q=-0.0 size=N/A time=00:19:42.26 bitrate=N/A speed=18.9x    frame=28610 fps=455 q=-0.0 size=N/A time=00:19:53.27 bitrate=N/A speed=  19x    frame=28867 fps=455 q=-0.0 size=N/A time=00:20:03.99 bitrate=N/A speed=  19x    frame=29112 fps=455 q=-0.0 size=N/A time=00:20:14.21 bitrate=N/A speed=  19x    frame=29355 fps=455 q=-0.0 size=N/A time=00:20:24.34 bitrate=N/A speed=  19x    frame=29609 fps=455 q=-0.0 size=N/A time=00:20:34.94 bitrate=N/A speed=  19x    frame=29839 fps=455 q=-0.0 size=N/A time=00:20:44.53 bitrate=N/A speed=  19x    frame=30083 fps=456 q=-0.0 size=N/A time=00:20:54.71 bitrate=N/A speed=  19x    frame=30326 fps=456 q=-0.0 size=N/A time=00:21:04.84 bitrate=N/A speed=  19x    frame=30592 fps=456 q=-0.0 size=N/A time=00:21:15.94 bitrate=N/A speed=  19x    frame=30861 fps=457 q=-0.0 size=N/A time=00:21:27.16 bitrate=N/A speed=  19x    frame=31130 fps=457 q=-0.0 size=N/A time=00:21:38.38 bitrate=N/A speed=19.1x    frame=31371 fps=457 q=-0.0 size=N/A time=00:21:48.43 bitrate=N/A speed=19.1x    frame=31613 fps=457 q=-0.0 size=N/A time=00:21:58.52 bitrate=N/A speed=19.1x    frame=31697 fps=455 q=-0.0 size=N/A time=00:22:02.07 bitrate=N/A speed=  19x    frame=31818 fps=453 q=-0.0 size=N/A time=00:22:07.07 bitrate=N/A speed=18.9x    frame=31969 fps=452 q=-0.0 size=N/A time=00:22:13.37 bitrate=N/A speed=18.9x    frame=32117 fps=451 q=-0.0 size=N/A time=00:22:19.54 bitrate=N/A speed=18.8x    frame=32262 fps=450 q=-0.0 size=N/A time=00:22:25.59 bitrate=N/A speed=18.8x    frame=32390 fps=448 q=-0.0 size=N/A time=00:22:30.93 bitrate=N/A speed=18.7x    frame=32492 fps=447 q=-0.0 size=N/A time=00:22:35.18 bitrate=N/A speed=18.6x    frame=32594 fps=445 q=-0.0 size=N/A time=00:22:39.44 bitrate=N/A speed=18.6x    frame=32753 fps=444 q=-0.0 size=N/A time=00:22:46.07 bitrate=N/A speed=18.5x    frame=32882 fps=443 q=-0.0 size=N/A time=00:22:51.45 bitrate=N/A speed=18.5x    frame=33029 fps=441 q=-0.0 size=N/A time=00:22:57.58 bitrate=N/A speed=18.4x    frame=33146 fps=440 q=-0.0 size=N/A time=00:23:02.46 bitrate=N/A speed=18.4x    frame=33294 fps=439 q=-0.0 size=N/A time=00:23:08.63 bitrate=N/A speed=18.3x    frame=33394 fps=437 q=-0.0 size=N/A time=00:23:12.80 bitrate=N/A speed=18.2x    frame=33502 fps=436 q=-0.0 size=N/A time=00:23:17.31 bitrate=N/A speed=18.2x    frame=33603 fps=434 q=-0.0 size=N/A time=00:23:21.52 bitrate=N/A speed=18.1x    [Parsed_psnr_10 @ 000001f138c949c0] PSNR y:47.575774 u:50.709531 v:51.224226 average:48.439702 min:34.227018 max:inf
[out#0/null @ 000001f12d6bef00] video:14446KiB audio:262920KiB subtitle:0KiB other streams:0KiB global headers:0KiB muxing overhead: unknown
frame=33619 fps=434 q=-0.0 Lsize=N/A time=00:23:22.19 bitrate=N/A speed=18.1x    
